<svg width="9" height="7" viewBox="0 0 9 7" fill="none" xmlns="http://www.w3.org/2000/svg">
<path d="M8.10317 1.62812C7.82848 1.74529 7.53713 1.82219 7.23879 1.85628C7.54954 1.67696 7.78815 1.39299 7.9005 1.05464C7.60509 1.22342 7.28189 1.34234 6.94486 1.40626C6.67032 1.12466 6.27922 0.948669 5.84635 0.948669C5.01521 0.948669 4.34135 1.59744 4.34135 2.39763C4.34135 2.51121 4.35467 2.62178 4.38032 2.72786C3.12957 2.66742 2.02066 2.09056 1.27837 1.21391C1.14886 1.42791 1.07464 1.67685 1.07464 1.94236C1.07464 2.44508 1.34035 2.88857 1.74415 3.14843C1.50516 3.14122 1.27143 3.07907 1.06247 2.96717C1.06238 2.97324 1.06238 2.97931 1.06238 2.9854C1.06238 3.68745 1.58113 4.27311 2.26958 4.40622C2.04796 4.46425 1.8155 4.47274 1.58996 4.43105C1.78145 5.00672 2.33726 5.42562 2.99578 5.43735C2.48073 5.82596 1.8318 6.05762 1.12674 6.05762C1.00524 6.05762 0.88547 6.05075 0.767731 6.03737C1.43374 6.4485 2.22479 6.68838 3.07467 6.68838C5.84285 6.68838 7.35656 4.48043 7.35656 2.56567C7.35656 2.50282 7.35513 2.44033 7.3522 2.3782C7.64683 2.17313 7.90113 1.91913 8.10317 1.62812Z" fill="white"/>
</svg>
